<?xml version="1.0" encoding="utf-8"?>
<!-- Generator: Adobe Illustrator 15.0.0, SVG Export Plug-In . SVG Version: 6.00 Build 0)  -->
<!DOCTYPE svg PUBLIC "-//W3C//DTD SVG 1.1//EN" "http://www.w3.org/Graphics/SVG/1.1/DTD/svg11.dtd">
<svg version="1.1" id="图层_1" xmlns="http://www.w3.org/2000/svg" xmlns:xlink="http://www.w3.org/1999/xlink" x="0px" y="0px"
	 width="140px" height="140px" viewBox="0 0 140 140" enable-background="new 0 0 140 140" xml:space="preserve">
<g>
	<defs>
		<circle id="SVGID_1_" cx="70" cy="70" r="70"/>
	</defs>
	<clipPath id="SVGID_2_">
		<use xlink:href="#SVGID_1_"  overflow="visible"/>
	</clipPath>
	<g clip-path="url(#SVGID_2_)">
		<path fill="#EFD6A3" d="M140,129.063c0,6.041-4.896,10.938-10.938,10.938H10.938C4.896,140,0,135.104,0,129.063V10.938
			C0,4.897,4.896,0,10.938,0h118.125C135.104,0,140,4.897,140,10.938V129.063z"/>
		<ellipse fill="#E0BF81" cx="70.001" cy="111.305" rx="47.616" ry="7.633"/>
		<g>
			<circle fill="#E2AB30" cx="68.43" cy="48.941" r="24.063"/>
			<g>
				<circle fill="#E2AB30" cx="70.001" cy="83.207" r="27.722"/>
				<circle fill="#EFD6A3" cx="70" cy="83.207" r="26.611"/>
				<circle fill="#E2AB30" cx="70" cy="83.207" r="25.633"/>
				<circle fill="#F2E6D3" cx="70" cy="83.207" r="18.508"/>
			</g>
			<path fill="#E2AB30" d="M47.361,38.739c-5.797,11.773-0.953,26.017,10.82,31.814c11.774,5.798,26.018,0.955,31.814-10.818
				c5.797-11.774,0.963-26.035-10.82-31.815c-6.012-2.95,5.906-3.834,5.25-4.081C66.083,16.94,52.844,27.607,47.361,38.739z"/>
			<path fill="#E2AB30" d="M67.752,86.467c0.172,0.172,0.514,0.172,0.686,0l2.925-2.926c0.172-0.172,0.518-0.172,0.689,0
				c0.344,0.344,0.344,0.688,0.172,0.859l-2.925,2.926c-0.172,0.172-0.172,0.516,0,0.688s0.516,0.172,0.688,0l2.925-2.924
				c0.172-0.172,0.516-0.172,0.689,0c0.344,0.344,0.342,0.688,0.172,0.859l-2.925,2.926c-0.172,0.172-0.172,0.516,0,0.688
				c0.343,0.344,0.687,0.344,0.859,0.172l4.646-4.645c1.031-1.033,0.861-2.238,0.344-3.098l9.807-9.807
				c0.344-0.344,0.344-0.688,0-1.031c-0.344-0.345-0.688-0.345-1.033,0l-9.633,9.633c-1.033-0.688-2.41-0.688-3.441,0.344
				l-4.644,4.646C67.579,85.949,67.579,86.293,67.752,86.467L67.752,86.467z M67.752,86.467"/>
			<path fill="#E2AB30" d="M68.012,89.367c1.428-1.428,0.357-4.996-1.248-6.246c-1.965-1.963-3.75-1.963-5.176-1.25L50.879,71.162
				c-0.357-0.355-0.715-0.355-1.072,0c-0.355,0.357-0.355,0.715,0,1.07l10.709,10.709c-0.713,1.428-0.535,3.393,1.25,5.178
				C63.194,89.545,66.584,90.795,68.012,89.367L68.012,89.367z M68.012,89.367"/>
			<g>
				<g>
					<path d="M62.276,57.567c2.904,2.676,7.057,2.676,9.96,0c1.141-1.052-0.563-2.744-1.697-1.697c-1.923,1.771-4.644,1.771-6.566,0
						C62.838,54.823,61.136,56.515,62.276,57.567L62.276,57.567z"/>
				</g>
			</g>
			<path d="M61.411,42.964c-0.195,0-0.393,0.196-0.393,0.393v3.335c0,0.196-0.195,0.392-0.391,0.392c-0.393,0-0.59-0.195-0.59-0.392
				v-3.335c0-0.196-0.197-0.393-0.393-0.393s-0.391,0.196-0.391,0.393v3.335c0,0.196-0.197,0.392-0.395,0.392
				c-0.391,0-0.588-0.195-0.588-0.392v-3.335c0-0.196-0.195-0.393-0.393-0.393c-0.393,0-0.588,0.196-0.588,0.393v5.297
				c0,1.177,0.785,1.766,1.569,1.962l1.178-0.001c0.98-0.195,1.766-0.784,1.766-1.961v-5.297
				C61.803,43.16,61.608,42.964,61.411,42.964z"/>
			<path d="M74.715,42.964c-1.568,0-2.746,2.551-2.746,4.12c0,1.962,0.98,3.139,2.158,3.531h1.178
				c1.176-0.393,2.156-1.373,2.156-3.531C77.658,45.515,76.283,42.964,74.715,42.964z"/>
		</g>
	</g>
</g>
</svg>
