<?xml version="1.0" encoding="utf-8"?>
<!-- Generator: Adobe Illustrator 15.0.0, SVG Export Plug-In . SVG Version: 6.00 Build 0)  -->
<!DOCTYPE svg PUBLIC "-//W3C//DTD SVG 1.1//EN" "http://www.w3.org/Graphics/SVG/1.1/DTD/svg11.dtd">
<svg version="1.1" id="图层_1" xmlns="http://www.w3.org/2000/svg" xmlns:xlink="http://www.w3.org/1999/xlink" x="0px" y="0px"
	 width="40px" height="40px" viewBox="0 0 40 40" enable-background="new 0 0 40 40" xml:space="preserve">
<g>
	<g>
		<defs>
			<rect id="SVGID_1_" y="2.566" width="40" height="34.87"/>
		</defs>
		<clipPath id="SVGID_2_">
			<use xlink:href="#SVGID_1_"  overflow="visible"/>
		</clipPath>
		<path clip-path="url(#SVGID_2_)" fill="#CFCFCF" d="M8.738,4.071C7.623,2.896,6.379,2.278,5.953,2.684
			C5.527,3.089,6.086,4.371,7.201,5.542c1.117,1.171,2.361,1.793,2.787,1.384C10.41,6.519,9.852,5.242,8.738,4.071L8.738,4.071z
			 M8.738,4.071"/>
		<path clip-path="url(#SVGID_2_)" fill="#999999" d="M1.506,10.453c-0.76-0.17-1.434-0.087-1.504,0.188
			c-0.072,0.276,0.484,0.639,1.244,0.809c0.762,0.169,1.436,0.087,1.506-0.189S2.268,10.622,1.506,10.453L1.506,10.453z
			 M1.506,10.453"/>
		<path clip-path="url(#SVGID_2_)" fill="#C5C5C5" d="M39.932,23.896c-0.174-0.355-1.131-0.264-2.141,0.201
			c-1.004,0.465-1.682,1.127-1.504,1.482c0.172,0.354,1.131,0.264,2.139-0.201C39.432,24.914,40.105,24.252,39.932,23.896
			L39.932,23.896z M39.932,23.896"/>
	</g>
	<path fill="#DCDCDC" d="M18.443,22.533V7.166c-8.348,0-15.111,6.768-15.111,15.112c0,8.348,6.768,15.111,15.111,15.111
		c8.262,0,14.969-6.631,15.107-14.855H18.443z M18.443,22.533"/>
	<path fill="none" stroke="#737373" stroke-miterlimit="10" d="M18.443,22.522V7.775c-8.011,0-14.502,6.495-14.502,14.502
		c0,8.01,6.495,14.502,14.502,14.502c7.929,0,14.365-6.363,14.498-14.257H18.443z M18.443,22.522"/>
	<path fill="#ACACAC" d="M18.443,22.533V12.289c-5.518,0-9.992,4.474-9.992,9.993c0,5.518,4.475,9.99,9.992,9.99
		c5.432,0,9.838-4.334,9.977-9.734h-9.977V22.533z M18.443,22.533"/>
	<path fill="#C6C6C6" d="M20.492,4.986c8.348,0,15.111,6.768,15.111,15.111c0,0.13-0.016,0.256-0.02,0.387H20.492V4.986z
		 M20.492,4.986"/>
</g>
</svg>
