<?xml version="1.0" encoding="utf-8"?>
<!-- Generator: Adobe Illustrator 15.0.0, SVG Export Plug-In . SVG Version: 6.00 Build 0)  -->
<!DOCTYPE svg PUBLIC "-//W3C//DTD SVG 1.1//EN" "http://www.w3.org/Graphics/SVG/1.1/DTD/svg11.dtd">
<svg version="1.1" id="图层_1" xmlns="http://www.w3.org/2000/svg" xmlns:xlink="http://www.w3.org/1999/xlink" x="0px" y="0px"
	 width="40px" height="40px" viewBox="0 0 40 40" enable-background="new 0 0 40 40" xml:space="preserve">
<g>
	<path fill="#3E3E3E" d="M31.382,33.515c0,0.424-0.171,0.83-0.469,1.131c-0.298,0.299-0.708,0.471-1.133,0.471H13.779
		c-0.424,0-0.83-0.172-1.133-0.471c-0.298-0.297-0.469-0.707-0.469-1.131V11.912c0-0.883,0.718-1.602,1.602-1.602H29.78
		c0.425,0,0.83,0.172,1.133,0.471c0.298,0.299,0.469,0.709,0.469,1.131V33.515z M31.382,33.515"/>
	<path fill="#8F8F8F" d="M30.581,33.114c0,0.316-0.127,0.625-0.352,0.85c-0.226,0.225-0.532,0.352-0.85,0.352h-15.2
		c-0.317,0-0.625-0.127-0.85-0.352s-0.352-0.533-0.352-0.85v-20.8c0-0.316,0.127-0.625,0.352-0.852
		c0.225-0.223,0.532-0.35,0.85-0.35h15.2c0.317,0,0.624,0.127,0.85,0.35c0.225,0.227,0.352,0.535,0.352,0.852V33.114z
		 M30.581,33.114"/>
	<path fill="#3E3E3E" d="M17.07,10.316h9.424v0.801H17.07V10.316z M24.531,8.705c-0.221,0-0.424,0.045-0.625,0.109
		c-0.146-1.09-1.078-1.9-2.178-1.9c-1.089,0-2.012,0.795-2.174,1.869c-0.17-0.049-0.346-0.078-0.527-0.078
		c-0.956,0-1.777,0.674-1.962,1.611h0.825c0.121-0.355,0.404-0.635,0.762-0.752c0.117-0.039,0.244-0.063,0.365-0.063
		c0.108,0,0.205,0.02,0.305,0.043l0.009,0.006c0.171,0.045,0.327,0.131,0.464,0.244l0.566-0.396
		c-0.02-0.088-0.029-0.174-0.034-0.268V9.115c0-0.771,0.625-1.4,1.401-1.4s1.401,0.623,1.401,1.4c0,0.064-0.011,0.121-0.019,0.186
		c-0.006,0.029-0.016,0.053-0.02,0.084l0.688,0.395c0.063-0.053,0.137-0.102,0.21-0.137l0.009-0.004
		c0.05-0.023,0.099-0.043,0.147-0.059l0.044-0.016c0.049-0.014,0.098-0.029,0.146-0.035c0.01,0,0.024,0,0.039-0.004
		c0.054-0.004,0.104-0.016,0.156-0.016c0.059,0,0.111,0.012,0.166,0.016c0.01,0,0.02,0,0.033,0.004
		c0.049,0.012,0.099,0.021,0.147,0.035c0.015,0.006,0.034,0.01,0.048,0.016c0.049,0.02,0.1,0.039,0.143,0.059l0.024,0.014
		c0.269,0.143,0.474,0.381,0.571,0.67h0.83C26.303,9.378,25.483,8.705,24.531,8.705L24.531,8.705z M24.531,8.705"/>
	<path fill="#3E3E3E" d="M21.783,8.158c-0.387,0-0.699,0.313-0.699,0.699c0,0.385,0.313,0.697,0.699,0.697
		c0.385,0,0.697-0.313,0.697-0.697C22.48,8.47,22.168,8.158,21.783,8.158L21.783,8.158z M21.783,9.013
		c-0.089,0-0.156-0.07-0.156-0.156c0-0.088,0.067-0.156,0.156-0.156c0.087,0,0.154,0.068,0.154,0.156
		C21.934,8.943,21.865,9.013,21.783,9.013L21.783,9.013z M7.217,33.407h3.598v0.801H7.217V33.407z M5.248,33.407h1.168v0.801H5.248
		V33.407z M0,33.407h4.467v0.801H0V33.407z M3.148,36.956h14.268v0.801H3.148V36.956z M33.711,34.331H40v0.799h-6.289V34.331z
		 M35.933,14.876h2.798v0.801h-2.798V14.876z M35.933,14.876"/>
	<path fill="#3E3E3E" d="M36.934,13.88h0.801v2.797h-0.801V13.88z M3.066,26.571h2.797v0.801H3.066V26.571z M3.066,26.571"/>
	<rect x="4.066" y="25.575" fill="#3E3E3E" width="0.802" height="2.799"/>
	<path fill="#B0B0B0" d="M33.74,29.554c0,0.43,0.347,0.771,0.771,0.771c0.43,0,0.771-0.346,0.771-0.771
		c0-0.424-0.347-0.771-0.771-0.771C34.087,28.778,33.74,29.124,33.74,29.554L33.74,29.554z M1.578,19.486
		c0,0.601,0.487,1.089,1.088,1.089s1.089-0.488,1.089-1.089c0-0.602-0.488-1.088-1.089-1.088S1.578,18.884,1.578,19.486
		L1.578,19.486z M5.977,4.886c0,0.684,0.557,1.24,1.24,1.24s1.24-0.557,1.24-1.24c0-0.682-0.557-1.24-1.24-1.24
		S5.977,4.197,5.977,4.886L5.977,4.886z M5.977,4.886"/>
	<rect x="13.813" y="3.248" fill="#3E3E3E" width="2.799" height="0.801"/>
	<rect x="14.809" y="2.244" fill="#3E3E3E" width="0.803" height="2.799"/>
	<path fill="#B0B0B0" d="M5.977,8.636c0,0.412,0.332,0.742,0.742,0.742s0.742-0.33,0.742-0.742c0-0.41-0.332-0.74-0.742-0.74
		S5.977,8.226,5.977,8.636L5.977,8.636z M31.797,12.65c0,0.41,0.332,0.742,0.742,0.742s0.742-0.332,0.742-0.742
		s-0.332-0.742-0.742-0.742S31.797,12.24,31.797,12.65L31.797,12.65z M28.564,5.042c0,0.732,0.596,1.328,1.328,1.328
		s1.328-0.596,1.328-1.328s-0.596-1.328-1.328-1.328C29.154,3.72,28.564,4.31,28.564,5.042L28.564,5.042z M28.564,5.042"/>
	<path fill="#BBBBBB" d="M29.78,32.714c0,0.209-0.083,0.414-0.235,0.566c-0.15,0.15-0.351,0.234-0.564,0.234h-14.4
		c-0.209,0-0.414-0.084-0.566-0.234c-0.151-0.152-0.234-0.354-0.234-0.566v-20c0-0.209,0.083-0.416,0.234-0.568
		c0.152-0.148,0.352-0.234,0.566-0.234h14.4c0.209,0,0.414,0.086,0.564,0.234c0.152,0.152,0.235,0.354,0.235,0.568V32.714z
		 M29.78,32.714"/>
	<rect x="7.816" y="13.88" fill="#FFFFFF" width="18.399" height="14.398"/>
	<path fill="#3E3E3E" d="M7.816,13.88h1.603v0.801H7.816V13.88z M10.215,13.88h1.602v0.801h-1.602V13.88z M12.617,13.88h1.602v0.801
		h-1.602V13.88z M15.02,13.88h1.602v0.801H15.02V13.88z M17.416,13.88h1.602v0.801h-1.602V13.88z M19.818,13.88h1.604v0.801h-1.604
		V13.88z M22.217,13.88h1.602v0.801h-1.602V13.88z M7.816,15.478h0.801v1.602H7.816V15.478z M7.816,17.88h0.801v1.602H7.816V17.88z
		 M7.816,20.276h0.801v1.604H7.816V20.276z M7.816,22.679h0.801v1.602H7.816V22.679z M22.217,27.478h1.602v0.801h-1.602V27.478z
		 M19.818,27.478h1.604v0.801h-1.604V27.478z M17.416,27.478h1.602v0.801h-1.602V27.478z M15.02,27.478h1.602v0.801H15.02V27.478z
		 M12.617,27.478h1.602v0.801h-1.602V27.478z M10.215,27.478h1.602v0.801h-1.602V27.478z M7.816,27.478h1.603v0.801H7.816V27.478z
		 M25.416,22.679h0.8v1.602h-0.8V22.679z M25.416,20.276h0.8v1.604h-0.8V20.276z M25.416,17.88h0.8v1.602h-0.8V17.88z
		 M25.416,15.478h0.8v1.602h-0.8V15.478z M10.014,17.255h2.002v0.801h-2.002V17.255z M13.11,17.255h10.919v0.801H13.11V17.255z
		 M13.11,17.255"/>
	<rect x="10.014" y="19.654" fill="#B0B0B0" width="14.016" height="0.8"/>
	<path fill="#3E3E3E" d="M10.014,22.056h6.603v0.801h-6.603V22.056z M17.441,22.056h1.117v0.801h-1.117V22.056z M19.355,22.056
		h4.674v0.801h-4.68v-0.801H19.355z M19.355,22.056"/>
	<rect x="10.014" y="24.45" fill="#B0B0B0" width="10.387" height="0.801"/>
	<path fill="#3E3E3E" d="M24.619,13.88h1.602v0.801h-1.602V13.88z M24.619,27.478h1.602v0.801h-1.602V27.478z M25.416,25.077h0.8
		v1.602h-0.8V25.077z M7.816,25.077h0.801v1.602H7.816V25.077z M33.604,21.698l1.967,1.377l-6.426,9.176l-1.967-1.379L33.604,21.698
		z M33.604,21.698"/>
	<path fill="#8F8F8F" d="M33.799,22.812l0.654,0.459l-5.504,7.865l-0.654-0.459L33.799,22.812z M33.799,22.812"/>
	<path fill="#3E3E3E" d="M27.183,30.868l-0.21,2.393l2.172-1.016L27.183,30.868z M27.183,30.868"/>
	<path fill="#B0B0B0" d="M27.838,31.325l-0.07,0.797l0.724-0.336L27.838,31.325z M27.838,31.325"/>
</g>
</svg>
