<?xml version="1.0" encoding="utf-8"?>
<!-- Generator: Adobe Illustrator 15.0.0, SVG Export Plug-In . SVG Version: 6.00 Build 0)  -->
<!DOCTYPE svg PUBLIC "-//W3C//DTD SVG 1.1//EN" "http://www.w3.org/Graphics/SVG/1.1/DTD/svg11.dtd">
<svg version="1.1" id="图层_1" xmlns="http://www.w3.org/2000/svg" xmlns:xlink="http://www.w3.org/1999/xlink" x="0px" y="0px"
	 width="40px" height="40px" viewBox="0 0 40 40" enable-background="new 0 0 40 40" xml:space="preserve">
<g>
	<path fill="#3D3E40" d="M31.381,33.515c0,0.424-0.17,0.83-0.469,1.131c-0.297,0.299-0.707,0.471-1.133,0.471h-16
		c-0.425,0-0.831-0.172-1.133-0.471c-0.298-0.297-0.469-0.707-0.469-1.131V11.912c0-0.884,0.718-1.602,1.602-1.602h16
		c0.426,0,0.83,0.171,1.133,0.47c0.299,0.299,0.469,0.709,0.469,1.132V33.515z M31.381,33.515"/>
	<path fill="#B78D23" d="M30.58,33.114c0,0.316-0.127,0.625-0.352,0.85s-0.531,0.352-0.85,0.352H14.18
		c-0.317,0-0.625-0.127-0.85-0.352s-0.352-0.533-0.352-0.85V12.313c0-0.316,0.127-0.625,0.352-0.851
		c0.225-0.224,0.532-0.351,0.85-0.351h15.199c0.318,0,0.625,0.127,0.85,0.351c0.225,0.226,0.352,0.534,0.352,0.851V33.114z
		 M30.58,33.114"/>
	<path fill="#3D3E40" d="M17.07,10.316h9.424v0.801H17.07V10.316z M24.531,8.705c-0.221,0-0.426,0.044-0.625,0.108
		c-0.146-1.09-1.08-1.9-2.178-1.9c-1.09,0-2.012,0.795-2.173,1.869c-0.171-0.048-0.347-0.077-0.527-0.077
		c-0.957,0-1.777,0.674-1.963,1.611h0.825c0.122-0.356,0.405-0.636,0.762-0.753C18.77,9.525,18.896,9.5,19.019,9.5
		c0.107,0,0.205,0.021,0.303,0.044l0.01,0.005c0.171,0.045,0.327,0.131,0.464,0.244l0.566-0.396
		c-0.02-0.089-0.029-0.175-0.034-0.269V9.115c0-0.771,0.624-1.401,1.401-1.401c0.775,0,1.4,0.624,1.4,1.401
		c0,0.064-0.01,0.121-0.02,0.186c-0.004,0.028-0.014,0.053-0.02,0.084l0.689,0.395c0.063-0.054,0.137-0.103,0.209-0.137l0.01-0.005
		c0.049-0.023,0.098-0.043,0.146-0.059l0.045-0.016c0.049-0.014,0.098-0.028,0.146-0.034c0.01,0,0.023,0,0.039-0.004
		c0.053-0.004,0.102-0.016,0.156-0.016c0.059,0,0.111,0.012,0.166,0.016c0.01,0,0.02,0,0.033,0.004
		c0.049,0.011,0.098,0.021,0.146,0.034c0.016,0.006,0.035,0.011,0.049,0.016c0.049,0.02,0.098,0.039,0.143,0.059l0.023,0.015
		c0.27,0.142,0.475,0.381,0.572,0.669h0.83C26.303,9.378,25.482,8.705,24.531,8.705L24.531,8.705z M24.531,8.705"/>
	<path fill="#3D3E40" d="M21.781,8.158c-0.385,0-0.697,0.313-0.697,0.698s0.313,0.698,0.697,0.698c0.387,0,0.699-0.313,0.699-0.698
		S22.168,8.158,21.781,8.158L21.781,8.158z M21.781,9.012c-0.088,0-0.156-0.069-0.156-0.156c0-0.088,0.068-0.156,0.156-0.156
		s0.156,0.068,0.156,0.156C21.934,8.943,21.865,9.012,21.781,9.012L21.781,9.012z M7.217,33.407h3.599v0.801H7.217V33.407z
		 M5.249,33.407h1.167v0.801H5.249V33.407z M0,33.407h4.468v0.801H0V33.407z M3.149,36.956h14.268v0.801H3.149V36.956z
		 M33.711,34.331H40v0.799h-6.289V34.331z M35.932,14.875h2.799v0.802h-2.799V14.875z M35.932,14.875"/>
	<path fill="#3D3E40" d="M36.934,13.88h0.801v2.797h-0.801V13.88z M3.066,26.571h2.798v0.801H3.066V26.571z M3.066,26.571"/>
	<rect x="4.067" y="25.575" fill="#3D3E40" width="0.801" height="2.799"/>
	<path fill="#EBAC23" d="M33.74,29.554c0,0.43,0.346,0.771,0.771,0.771c0.43,0,0.771-0.346,0.771-0.771
		c0-0.424-0.348-0.771-0.771-0.771C34.086,28.778,33.74,29.124,33.74,29.554L33.74,29.554z M1.577,19.485
		c0,0.602,0.488,1.09,1.089,1.09s1.089-0.488,1.089-1.09c0-0.601-0.488-1.088-1.089-1.088S1.577,18.884,1.577,19.485L1.577,19.485z
		 M5.977,4.886c0,0.684,0.556,1.239,1.24,1.239c0.684,0,1.24-0.556,1.24-1.239c0-0.683-0.557-1.24-1.24-1.24
		C6.532,3.646,5.977,4.197,5.977,4.886L5.977,4.886z M5.977,4.886"/>
	<rect x="13.813" y="3.247" fill="#3D3E40" width="2.798" height="0.801"/>
	<rect x="14.81" y="2.244" fill="#3D3E40" width="0.801" height="2.799"/>
	<path fill="#EBAC23" d="M5.977,8.636c0,0.411,0.332,0.742,0.742,0.742c0.409,0,0.741-0.331,0.741-0.742
		c0-0.41-0.332-0.741-0.741-0.741C6.309,7.895,5.977,8.226,5.977,8.636L5.977,8.636z M31.797,12.65c0,0.41,0.332,0.741,0.742,0.741
		s0.742-0.331,0.742-0.741s-0.332-0.742-0.742-0.742S31.797,12.24,31.797,12.65L31.797,12.65z M28.564,5.042
		c0,0.732,0.596,1.328,1.328,1.328s1.328-0.596,1.328-1.328s-0.596-1.328-1.328-1.328C29.154,3.719,28.564,4.31,28.564,5.042
		L28.564,5.042z M28.564,5.042"/>
	<path fill="#D3AC40" d="M29.779,32.714c0,0.209-0.082,0.414-0.234,0.566c-0.15,0.15-0.352,0.234-0.566,0.234H14.58
		c-0.21,0-0.415-0.084-0.566-0.234c-0.151-0.152-0.234-0.354-0.234-0.566v-20c0-0.209,0.083-0.415,0.234-0.567
		c0.151-0.149,0.352-0.234,0.566-0.234h14.398c0.211,0,0.416,0.085,0.566,0.234c0.152,0.152,0.234,0.353,0.234,0.567V32.714z
		 M29.779,32.714"/>
	<rect x="7.817" y="13.88" fill="#FFFFFF" width="18.397" height="14.398"/>
	<path fill="#3D3E40" d="M7.817,13.88h1.602v0.801H7.817V13.88z M10.215,13.88h1.602v0.801h-1.602V13.88z M12.616,13.88h1.603v0.801
		h-1.603V13.88z M15.02,13.88h1.602v0.801H15.02V13.88z M17.417,13.88h1.602v0.801h-1.602V13.88z M19.819,13.88h1.601v0.801h-1.601
		V13.88z M22.217,13.88h1.602v0.801h-1.602V13.88z M7.817,15.478h0.801v1.601H7.817V15.478z M7.817,17.879h0.801v1.602H7.817V17.879
		z M7.817,20.276h0.801v1.604H7.817V20.276z M7.817,22.679h0.801v1.602H7.817V22.679z M22.217,27.478h1.602v0.801h-1.602V27.478z
		 M19.819,27.478h1.601v0.801h-1.601V27.478z M17.417,27.478h1.602v0.801h-1.602V27.478z M15.02,27.478h1.602v0.801H15.02V27.478z
		 M12.616,27.478h1.603v0.801h-1.603V27.478z M10.215,27.478h1.602v0.801h-1.602V27.478z M7.817,27.478h1.602v0.801H7.817V27.478z
		 M25.414,22.679h0.801v1.602h-0.801V22.679z M25.414,20.276h0.801v1.604h-0.801V20.276z M25.414,17.879h0.801v1.602h-0.801V17.879z
		 M25.414,15.478h0.801v1.601h-0.801V15.478z M10.015,17.254h2.002v0.801h-2.002V17.254z M13.11,17.254h10.917v0.801H13.11V17.254z
		 M13.11,17.254"/>
	<rect x="10.015" y="19.653" fill="#EBAC23" width="14.013" height="0.801"/>
	<path fill="#3D3E40" d="M10.015,22.056h6.602v0.801h-6.602V22.056z M17.441,22.056h1.118v0.801h-1.118V22.056z M19.355,22.056
		h4.672v0.801h-4.677v-0.801H19.355z M19.355,22.056"/>
	<rect x="10.015" y="24.45" fill="#EBAC23" width="10.386" height="0.801"/>
	<path fill="#3D3E40" d="M24.619,13.88h1.602v0.801h-1.602V13.88z M24.619,27.478h1.602v0.801h-1.602V27.478z M25.414,25.077h0.801
		v1.602h-0.801V25.077z M7.817,25.077h0.801v1.602H7.817V25.077z M33.604,21.698l1.967,1.377l-6.426,9.176l-1.967-1.379
		L33.604,21.698z M33.604,21.698"/>
	<path fill="#D3AC40" d="M33.799,22.812l0.654,0.459l-5.504,7.865l-0.654-0.459L33.799,22.812z M33.799,22.812"/>
	<path fill="#3D3E40" d="M27.182,30.868l-0.209,2.393l2.172-1.016L27.182,30.868z M27.182,30.868"/>
	<path fill="#EBAC23" d="M27.836,31.325l-0.068,0.797l0.723-0.336L27.836,31.325z M27.836,31.325"/>
</g>
</svg>
