<?xml version="1.0" encoding="utf-8"?>
<!-- Generator: Adobe Illustrator 15.0.0, SVG Export Plug-In . SVG Version: 6.00 Build 0)  -->
<!DOCTYPE svg PUBLIC "-//W3C//DTD SVG 1.1//EN" "http://www.w3.org/Graphics/SVG/1.1/DTD/svg11.dtd">
<svg version="1.1" id="图层_1" xmlns="http://www.w3.org/2000/svg" xmlns:xlink="http://www.w3.org/1999/xlink" x="0px" y="0px"
	 width="40px" height="40px" viewBox="0 0 40 40" enable-background="new 0 0 40 40" xml:space="preserve">
<g opacity="0.7">
	<path fill="#D6D6D6" d="M13.683,37.612c-0.16,0-0.288-0.063-0.415-0.158c-0.225-0.221-0.225-0.602,0-0.822l1.31-1.33
		c0.225-0.223,0.608-0.223,0.832,0c0.224,0.221,0.224,0.602,0,0.822l-1.311,1.33C13.971,37.55,13.843,37.612,13.683,37.612
		L13.683,37.612z M31.023,9.655c-0.16,0-0.287-0.063-0.416-0.192c-0.223-0.225-0.223-0.609,0-0.834l1.664-1.637
		c0.225-0.225,0.607-0.225,0.832,0s0.225,0.609,0,0.834l-1.664,1.669C31.313,9.623,31.184,9.655,31.023,9.655L31.023,9.655z
		 M31.023,9.655"/>
	<path fill="#ACACAC" d="M37.748,17.441c-0.16,0-0.287-0.064-0.416-0.193c-0.223-0.224-0.223-0.609,0-0.834l1.664-1.636
		c0.223-0.225,0.607-0.225,0.832,0c0.223,0.225,0.223,0.609,0,0.834l-1.664,1.636C38.035,17.409,37.875,17.441,37.748,17.441
		L37.748,17.441z M37.748,17.441"/>
	<path fill="#ACACAC" d="M21.238,9.655c-7.423,0-13.447,6.093-13.447,13.625c0,7.531,6.024,13.625,13.447,13.625
		c7.424,0,13.449-6.094,13.449-13.625C34.688,15.748,28.662,9.655,21.238,9.655L21.238,9.655z M21.238,9.655"/>
	<path fill="#D6D6D6" d="M3.19,4.346c-1.747,0-3.186,1.431-3.186,3.168c0,1.771,1.438,3.202,3.186,3.202
		c1.746,0,3.185-1.431,3.185-3.202C6.375,5.777,4.937,4.346,3.19,4.346L3.19,4.346z M3.19,4.346"/>
	<path fill="#ACACAC" d="M14.338,2.223c-0.878,0-1.593,0.7-1.593,1.593c0,0.859,0.715,1.592,1.593,1.592s1.593-0.7,1.593-1.592
		C15.931,2.923,15.216,2.223,14.338,2.223L14.338,2.223z M14.338,2.223"/>
	<path fill="#D6D6D6" d="M30.182,26.269c-2.631,6.029-7.057,4.957-8.588,10.283c7.422,0,13.447-6.096,13.447-13.631
		c0-3.986-1.697-7.603-4.428-10.081C28.582,17.562,32.811,20.241,30.182,26.269L30.182,26.269z M30.182,26.269"/>
	<path fill="#202020" d="M19.823,36.552c-7.813,0-14.156-6.453-14.156-14.35c0-0.371,0.302-0.674,0.668-0.674
		c0.368,0,0.668,0.303,0.668,0.674c0,7.158,5.742,13.004,12.82,13.004c1.97,0,3.806-0.402,5.442-1.209
		c0.158-0.082,0.344-0.096,0.514-0.037c0.17,0.057,0.309,0.178,0.387,0.34c0.168,0.336,0.035,0.738-0.301,0.906
		C23.996,36.114,21.994,36.552,19.823,36.552L19.823,36.552z M28.037,33.761c-0.201,0-0.402-0.1-0.535-0.268
		c-0.232-0.303-0.166-0.705,0.133-0.941c0.402-0.303,0.836-0.672,1.336-1.176c0.268-0.27,0.668-0.27,0.936,0
		c0.268,0.268,0.268,0.672,0,0.941c-0.568,0.57-1.035,0.975-1.469,1.311c-0.135,0.1-0.268,0.135-0.4,0.135V33.761z M31.242,30.165
		c-0.135,0-0.234-0.033-0.367-0.1c-0.301-0.201-0.402-0.605-0.201-0.941c1.289-2.066,1.973-4.453,1.971-6.889
		c0-7.159-5.742-13.006-12.821-13.006c-4.273,0-8.213,2.151-10.584,5.714c-0.734,1.041-1.269,2.184-1.669,3.46
		c-0.101,0.371-0.467,0.539-0.834,0.438C6.368,18.739,6.201,18.37,6.302,18c0.435-1.411,1.035-2.688,1.837-3.831
		c2.604-3.932,6.977-6.284,11.685-6.284c7.812,0,14.155,6.452,14.155,14.35c0.004,2.695-0.748,5.338-2.17,7.629
		C31.676,30.065,31.475,30.165,31.242,30.165L31.242,30.165z M31.242,30.165"/>
	<path fill="#202020" d="M27.959,18.27l-9.084,9.101c-0.236,0.234-0.505,0.334-0.808,0.334s-0.572-0.102-0.808-0.334l-5.248-5.232
		c-0.438-0.434-0.438-1.168,0-1.6c0.438-0.434,1.178-0.434,1.615,0l4.441,4.432l8.309-8.266c0.438-0.433,1.178-0.433,1.615,0
		C28.43,17.104,28.43,17.837,27.959,18.27L27.959,18.27z M27.959,18.27"/>
	<path fill="#D6D6D6" d="M12.745,6.824"/>
</g>
</svg>
