<?xml version="1.0" standalone="no"?><!DOCTYPE svg PUBLIC "-//W3C//DTD SVG 1.1//EN" "http://www.w3.org/Graphics/SVG/1.1/DTD/svg11.dtd"><svg t="1586225155510" class="icon" viewBox="0 0 1024 1024" version="1.1" xmlns="http://www.w3.org/2000/svg" p-id="7843" width="16" height="16" xmlns:xlink="http://www.w3.org/1999/xlink"><defs><style type="text/css"></style></defs><path d="M508.765 548.913c-45.569 0-82.642 37.073-82.642 82.643 0 18.12 5.76 35.32 16.66 49.74 0.234 0.31 0.476 0.61 0.728 0.904 20.418 23.794 21.9 40.78 21.996 42.337v47.198c0 23.853 19.406 43.258 43.26 43.258s43.259-19.406 43.259-43.258v-48.089c0-0.54-0.023-1.081-0.07-1.619-0.004-0.041 0.108-0.01 0.113-0.05 0.118-1.084 0.482-3.402 1.586-6.76 2.22-6.751 7.442-17.813 19.729-32.179 0.178-0.207 0.351-0.42 0.52-0.635 11.454-14.647 17.509-32.229 17.509-50.846-0.001-45.57-37.076-82.644-82.648-82.644z m35.907 110.166c-28.9 33.943-30.313 58.253-30.039 65.054v47.603c0 3.234-2.632 5.865-5.867 5.865s-5.865-2.63-5.865-5.865v-47.423c0.002-3.492-0.961-31.194-30.593-65.974-5.753-7.792-8.791-17.04-8.791-26.783 0-24.951 20.3-45.25 45.25-45.25 24.953 0 45.254 20.299 45.254 45.25-0.002 10.065-3.233 19.573-9.349 27.523z" p-id="7844"></path><path d="M822.68 390.412h-45.819V270.364c0-0.793-0.05-1.586-0.15-2.374-8.165-63.781-39.283-122.509-87.623-165.367C640.325 59.39 577.543 35.58 512.31 35.58c-71.204 0-138.146 27.729-188.494 78.077-50.35 50.348-78.077 117.29-78.077 188.496v88.23l-50.884 0.029c-35.176 0-63.793 28.618-63.793 63.793v452.057c0 35.176 28.617 63.792 63.793 63.792h389.76c0.568 0 1.13-0.024 1.684-0.074h234.698c0.555 0.05 1.117 0.074 1.684 0.074 35.175 0 63.792-28.616 63.792-63.792V454.205c0-35.175-28.617-63.793-63.792-63.793z m26.4 515.85c0 13.887-10.778 25.304-24.409 26.325H578.914c-0.568 0-1.13 0.025-1.684 0.075H194.854c-14.558 0-26.4-11.843-26.4-26.4V454.205c0-14.558 11.843-26.4 26.4-26.4l69.59-0.042a18.805 18.805 0 0 0 2.798-0.233c1.003 0.167 2.028 0.275 3.08 0.275H623.25c0.336 0.008 0.857 0.015 1.547 0.015 9.41 0 50.318-1.432 85.969-24.945 8.62-5.686 10.998-17.282 5.313-25.902-5.687-8.62-17.284-10.998-25.902-5.313-29.552 19.492-65.778 18.771-66.081 18.762-0.205-0.007-0.41-0.01-0.617-0.01H283.131v-88.26c0-61.217 23.84-118.768 67.125-162.055C393.542 96.81 451.094 72.973 512.31 72.973c56.083 0 110.054 20.466 151.971 57.63 41.277 36.594 67.947 86.618 75.189 140.975v136.275c0 1.673 0.225 3.34 0.667 4.952l0.345 1.254a18.697 18.697 0 0 0 18.028 13.744h64.172c14.556 0 26.4 11.843 26.4 26.4v452.06z" p-id="7845"></path></svg>