<?xml version="1.0" standalone="no"?><!DOCTYPE svg PUBLIC "-//W3C//DTD SVG 1.1//EN" "http://www.w3.org/Graphics/SVG/1.1/DTD/svg11.dtd"><svg t="1586225137862" class="icon" viewBox="0 0 1024 1024" version="1.1" xmlns="http://www.w3.org/2000/svg" p-id="7068" width="16" height="16" xmlns:xlink="http://www.w3.org/1999/xlink"><defs><style type="text/css"></style></defs><path d="M612.864 556.544c70.656-36.864 119.296-110.592 119.296-195.584 0-121.344-98.816-220.16-220.16-220.16s-220.16 98.816-220.16 220.16c0 84.992 48.64 158.72 119.296 195.584-128.512 42.496-221.696 163.84-221.696 306.176 0 11.264 9.216 20.48 20.48 20.48s20.48-9.216 20.48-20.48c0-155.136 126.464-281.6 281.6-281.6s281.6 126.464 281.6 281.6c0 11.264 9.216 20.48 20.48 20.48s20.48-9.216 20.48-20.48c0-142.336-93.184-263.68-221.696-306.176zM332.8 360.96c0-98.816 80.384-179.2 179.2-179.2s179.2 80.384 179.2 179.2-80.384 179.2-179.2 179.2-179.2-80.384-179.2-179.2z" p-id="7069"></path></svg>